<svg width="170" height="43" viewBox="0 0 170 43" fill="none" xmlns="http://www.w3.org/2000/svg">
<path d="M32.2305 27.9249H29.1624C29.008 27.9249 28.9116 27.9828 28.9116 28.1179L28.7572 32.2288C28.7572 32.7306 28.5642 32.9236 28.0625 32.9236H19.0126C19.0126 32.9236 18.9161 32.9815 18.9161 33.078L18.8196 42.0331C18.8196 42.284 18.7232 42.4384 18.4144 42.4384C18.3565 42.4384 18.3179 42.3805 18.2601 42.3805L9.94337 36.9379C9.53815 36.687 9.40308 36.3396 9.44167 35.9536L9.8469 33.7342L12.9729 35.8571C12.9729 35.8571 13.0694 35.8571 13.1273 35.7606V33.0973C13.1273 33.0008 13.0694 32.9429 12.9729 32.9429H3.57562C3.13181 32.9429 2.88096 32.7499 2.88096 32.2481V30.2216H13.0308C13.0308 30.2216 13.1273 30.1637 13.1273 30.1251L13.1851 28.0986C13.1851 28.0021 13.1273 27.9442 13.0308 27.9442H1.1443C0.604001 27.9442 0.353149 27.6547 0.353149 27.0951V25.1072H13.0694C13.0694 25.1072 13.1658 25.0493 13.1658 25.0107L13.2237 23.2737C13.2237 23.2737 13.1273 23.1772 13.0694 23.1193L3.86506 23.2737C3.36336 23.2737 3.1704 23.0228 3.1704 22.5789L3.11251 20.5524L13.0694 20.398C13.1658 20.398 13.2237 20.3401 13.2237 20.2436L13.2816 17.5224H5.65961C5.2158 17.5224 4.96495 17.2715 4.96495 16.8276V8.6059H9.26801C9.71182 8.6059 9.96267 8.85679 9.96267 9.30069V9.74458C9.96267 9.84108 10.0206 9.89898 10.117 9.89898L13.3395 9.84108V7.06191C13.3395 6.96542 13.2816 6.90752 13.243 6.90752H2.01263C1.47233 6.90752 1.22148 6.65662 1.22148 6.11623V4.12835H13.243C13.3395 4.12835 13.3974 4.07045 13.3974 3.97395L13.4553 0.5L18.5495 0.557899C18.9933 0.557899 19.1863 0.750897 19.1863 1.25269V3.97395C19.1863 4.07045 19.2442 4.12835 19.3406 4.12835H26.6153C27.5029 2.98967 28.6414 2.44927 30.0886 2.44927V6.65662C30.0886 6.81102 29.9922 6.90752 29.7992 6.90752H19.302C19.2056 6.90752 19.1477 6.96542 19.1477 7.06191V9.59018C19.2056 9.68668 19.2442 9.74458 19.302 9.74458L22.5631 9.68668C22.5631 9.68668 22.621 9.62878 22.621 9.53228V8.3936H26.8276C27.3293 8.3936 27.5222 8.6445 27.5222 9.08839V16.8083C27.5222 17.2522 27.3293 17.5031 26.8276 17.5031H19.0512V20.1857C19.0512 20.1857 19.1477 20.2822 19.2056 20.2822L23.9138 20.2243C24.0103 20.2243 24.0682 20.1664 24.0682 20.0699L24.1261 18.7769L28.7379 18.9699C29.1817 19.0278 29.3747 19.2208 29.3361 19.7033L29.1431 25.0493C30.0308 23.9685 31.1692 23.4088 32.5971 23.4088V27.5776C32.5971 27.7705 32.5007 27.867 32.3077 27.867L32.2305 27.9249ZM13.1658 12.4465L10.0977 12.5044C10.0013 12.5044 9.94337 12.5623 9.94337 12.6588V14.8397C9.94337 14.9362 10.0013 14.9941 10.0977 14.9941H13.108C13.2044 14.9941 13.2623 14.9362 13.2623 14.8397L13.3202 12.6202C13.3202 12.6202 13.2237 12.5237 13.1658 12.4658V12.4465ZM23.5665 27.9249H19.0705C19.0705 27.9249 18.974 27.9828 18.974 28.0793L18.9161 30.1058C18.9161 30.1058 18.974 30.2023 19.0705 30.2023H23.47C23.47 30.2023 23.5665 30.1444 23.6244 30.1058L23.6823 28.0793C23.6823 27.9828 23.6244 27.9249 23.5858 27.9249H23.5665ZM23.7595 22.9842L19.1091 23.0421C19.0126 23.0421 18.9547 23.1 18.9547 23.1965V25.03C18.9547 25.03 19.0126 25.1265 19.1091 25.1265H23.663C23.7595 25.1265 23.8174 25.0686 23.8174 25.03L23.8753 23.1579C23.8753 23.1579 23.8174 23.0614 23.7788 23.0035L23.7595 22.9842ZM22.5824 12.4465C22.5824 12.35 22.5824 12.2921 22.5245 12.2921L19.2056 12.35C19.1091 12.35 19.0512 12.4079 19.0512 12.5044V14.8397C19.0512 14.9362 19.1091 14.9941 19.2056 14.9941H22.5245C22.5245 14.9941 22.5824 14.9362 22.5824 14.8397V12.4658V12.4465Z" fill="#2D4486"/>
<path d="M76.9445 11.443H43.4848C42.8866 11.443 42.5972 11.1535 42.5972 10.5938V8.81819H73.9342C74.7833 7.77601 75.8639 7.23561 77.1953 7.23561V11.1535C77.1953 11.3465 77.0988 11.443 76.9445 11.443ZM58.8832 40.1996C58.7867 40.2575 58.7288 40.2961 58.6323 40.354C58.5744 40.2961 58.5359 40.2961 58.4394 40.2575L51.2033 35.8571C50.7981 35.6062 50.663 35.2589 50.663 34.815L50.9138 32.4411L53.5767 34.2167C53.5767 34.2167 53.6732 34.2167 53.6732 34.1202L53.6153 19.6261C53.5574 19.5296 53.5188 19.4717 53.4609 19.4717L49.6982 19.5682C49.6017 19.5682 49.5438 19.6261 49.5438 19.7226L49.4859 22.1929C49.4859 22.2894 49.5438 22.3473 49.6403 22.3473H52.4189V24.4703C52.4189 24.9142 52.226 25.1072 51.7822 25.1072H49.6017C49.5052 25.1072 49.5052 25.1651 49.5052 25.2616L49.4473 27.5968C49.4473 27.6933 49.5052 27.7512 49.6017 27.7512H52.4189V29.8742C52.4189 30.3181 52.226 30.569 51.7822 30.569H49.5631C49.4666 30.569 49.4087 30.6269 49.4087 30.7234L49.3123 37.845C49.3123 38.3854 49.0614 38.6942 48.579 38.6942L44.6619 38.6363C44.2181 38.6363 44.0251 38.3854 44.0251 37.9029L44.2759 14.9748L48.9263 15.0327C49.3701 15.0327 49.621 15.2836 49.621 15.7661V16.6153L49.7754 16.7697L53.4416 16.6732C53.5381 16.6732 53.596 16.6153 53.596 16.5188V14.9362L58.2464 14.8783C58.6902 14.8783 58.8832 15.1292 58.8832 15.6117L59.0376 39.9101C59.0376 40.0645 58.9797 40.161 58.8832 40.1996ZM55.2169 6.69522L51.7436 6.98472C51.2033 7.04262 50.856 6.73382 50.7981 6.19343L50.2964 0.789496C53.7118 0.596499 55.6414 2.17908 55.9887 5.53724V5.78813C56.0466 6.32853 55.7958 6.63732 55.1976 6.67592L55.2169 6.69522ZM67.1999 29.411C67.1999 29.8549 67.0069 30.1058 66.5631 30.1058H62.8003C62.3565 30.1058 62.1057 29.8549 62.1057 29.411L62.1635 17.5803H66.5631C67.0069 17.5803 67.2577 17.7733 67.2577 18.2751L67.1999 29.411ZM69.7277 7.13911C69.5733 7.73741 69.226 7.9304 68.6857 7.77601L65.3281 6.79172C64.7878 6.63732 64.5949 6.28993 64.7299 5.74953L66.1579 0.5C68.7243 1.29129 70.0171 2.87387 70.0171 5.24774C70.0171 5.74953 69.9206 6.28993 69.7663 6.92682L69.7084 7.11981L69.7277 7.13911ZM74.9184 41.3383C74.9184 41.5313 74.8219 41.6278 74.6675 41.6857C74.5131 41.7436 74.3781 41.7436 74.2623 41.6857L66.2351 36.3975C65.8298 36.1466 65.6948 35.7606 65.7334 35.3167L66.0807 32.9429L69.5926 35.2782C69.6505 35.3747 69.6891 35.3361 69.747 35.2203L70.1522 15.2257L74.764 15.3222C75.2078 15.3222 75.4008 15.5731 75.4008 16.0556L74.8991 41.3576L74.9184 41.3383Z" fill="#2D4486"/>
<path d="M115.001 27.1144C114.905 27.4039 114.654 27.5583 114.364 27.5583C114.268 27.5583 114.171 27.5004 114.075 27.5004L110.814 26.767L111.894 23.1C111.894 23.0035 111.837 22.9456 111.798 22.9456L87.89 23.2351C87.4462 23.2351 87.2532 22.9842 87.2532 22.5403L87.1953 20.3594L112.531 20.012C112.628 20.012 112.724 19.9541 112.724 19.8577L113.419 17.4259L119.902 18.8155C120.404 18.912 120.501 19.1629 120.308 19.5489L115.02 27.0758L115.001 27.1144ZM106.723 14.1449C106.723 14.1449 106.665 14.2414 106.723 14.2993L108.267 16.6346C108.556 17.0399 108.46 17.3294 108.074 17.5803L105.16 19.5103C104.755 19.7998 104.427 19.7033 104.118 19.3173L96.9399 8.72169L98.6766 7.73741C99.2748 7.44791 99.8729 7.23561 100.413 7.23561C101.301 7.23561 101.996 7.64091 102.497 8.3164C102.652 8.5094 103.038 9.01119 103.578 9.74458C103.636 9.84108 103.732 9.84108 103.829 9.80248C105.218 8.4129 106.492 7.02332 107.591 5.65303C107.591 5.59514 107.534 5.55653 107.534 5.49864L93.428 5.65303C92.9842 5.65303 92.7333 5.46004 92.7333 5.01614L92.6754 2.83527L109.56 2.64227C109.656 2.64227 109.714 2.58437 109.753 2.48787C110.042 2.04398 110.447 1.40709 110.949 0.5L115.503 2.71947C115.947 2.91247 116.043 3.22127 115.792 3.60726C113.457 7.17771 110.447 10.6903 106.742 14.1449H106.723ZM106.028 40.6242C106.028 41.1646 105.778 41.319 105.334 41.0681L95.9751 36.2238C95.5699 36.0308 95.3769 35.6834 95.3769 35.2782V32.499L99.8729 35.0659C99.9694 35.1238 100.027 35.0658 100.027 34.9694V24.7791H105.43C105.874 24.7791 106.067 25.03 106.067 25.5125L106.009 40.6049L106.028 40.6242Z" fill="#2D4486"/>
<path d="M132.984 33.7921C132.637 34.043 132.289 34.043 132 33.7921L130.668 32.5569C130.321 32.2674 130.321 31.92 130.611 31.6112C131.46 30.762 132.251 29.8356 133.042 28.7934C133.93 29.4882 134.373 30.3181 134.373 31.2638C134.373 32.1516 134.026 32.9043 133.331 33.4833L132.984 33.7728V33.7921ZM146.298 26.5547C142.092 26.7477 137.48 26.9021 132.444 26.96C132 26.96 131.749 26.7091 131.749 26.2652L131.691 24.1422H132.733C132.83 24.1422 132.926 24.1422 132.926 24.0457L136.785 17.3101C136.882 17.2136 136.843 17.1557 136.689 17.1171L131.44 14.6467C130.996 14.3958 130.9 14.1063 131.093 13.6624C132.521 10.9798 134.45 7.11981 136.785 2.08258L141.05 3.95466C141.494 4.14765 141.59 4.45645 141.397 4.90034C141.301 5.15124 139.873 7.91111 137.094 13.1606C137.094 13.2185 137.094 13.2571 137.152 13.315C137.654 13.5659 138.136 13.8168 138.638 14.0098C138.696 14.0677 138.734 14.0677 138.792 13.9519L140.722 10.6324L144.832 12.9097C145.237 13.1027 145.334 13.4501 145.025 13.8554L138.985 24.0457L142.439 23.9492C142.439 23.9492 142.536 23.8527 142.536 23.7562C142.439 23.2158 142.285 21.9227 142.034 19.8962L145.507 19.6454C146.009 19.5875 146.24 19.7998 146.298 20.1857C146.453 21.9227 146.646 23.7948 146.897 25.8213C146.954 26.3231 146.742 26.5161 146.298 26.5547ZM141.937 35.1624C141.937 35.6063 141.687 35.8571 141.243 35.8571H137.326C136.824 35.8571 136.592 35.6063 136.592 35.1238L136.65 28.446H141.301C141.744 28.446 141.995 28.6969 141.995 29.1794L141.937 35.1624ZM147.533 32.5376L146.24 33.7342C145.835 34.0237 145.507 34.0237 145.198 33.7921L144.909 33.5412C144.311 32.9043 144.021 32.2095 144.021 31.4568C144.021 30.4725 144.465 29.6233 145.314 28.9285C146.048 29.9128 146.8 30.762 147.533 31.5533C147.881 31.9007 147.881 32.2481 147.533 32.5376ZM168.084 38.2889C168.084 38.8293 167.833 38.9258 167.447 38.6942L158.629 33.5026C158.185 33.2517 157.992 32.9043 158.03 32.4604L158.32 29.99L163.067 32.9622C163.067 32.9622 163.163 32.9622 163.163 32.9043C163.704 24.9335 164.109 17.3101 164.244 10.1306C164.244 10.0727 164.186 10.0341 164.09 9.97618L155.426 10.0341C155.329 10.0341 155.271 10.092 155.233 10.1885C154.384 11.9255 153.592 13.3536 152.859 14.5888C152.57 14.9941 152.261 15.0327 151.875 14.8397L147.765 12.6202C149.984 8.81819 151.624 4.74595 152.608 0.5L157.509 1.34919C158.05 1.44569 158.243 1.75448 158.108 2.19838C157.567 4.12835 157.027 5.76883 156.525 7.15841C156.525 7.15841 156.583 7.21631 156.622 7.31281L164.147 7.21631C164.244 7.21631 164.302 7.15841 164.302 7.11982L164.36 5.47934L169.01 5.53723C169.454 5.53723 169.647 5.78813 169.647 6.27063C169.492 16.8662 168.952 27.5583 168.065 38.3468L168.084 38.2889ZM157.587 22.5017L153.92 23.9299C153.515 24.1229 153.226 23.9878 153.071 23.5246L151.238 18.3716C151.875 18.1786 152.473 18.0242 153.11 18.0242C155.445 18.0242 157.066 19.105 157.915 21.3437L157.973 21.5946C158.166 21.9999 158.03 22.2894 157.567 22.4824L157.587 22.5017Z" fill="#2D4486"/>
</svg>
