<svg width="36" height="36" viewBox="0 0 36 36" fill="none" xmlns="http://www.w3.org/2000/svg">
<path d="M31.125 14.7188C31.125 15.0088 31.0098 15.287 30.8046 15.4921C30.5995 15.6973 30.3213 15.8125 30.0312 15.8125C29.7412 15.8125 29.463 15.6973 29.2579 15.4921C29.0527 15.287 28.9375 15.0088 28.9375 14.7188V8.61016L19.8689 17.6801C19.6637 17.8853 19.3854 18.0006 19.0951 18.0006C18.8049 18.0006 18.5265 17.8853 18.3213 17.6801C18.1161 17.4748 18.0008 17.1965 18.0008 16.9062C18.0008 16.616 18.1161 16.3377 18.3213 16.1324L27.3898 7.0625H21.2812C20.9912 7.0625 20.713 6.94727 20.5079 6.74215C20.3027 6.53703 20.1875 6.25883 20.1875 5.96875C20.1875 5.67867 20.3027 5.40047 20.5079 5.19535C20.713 4.99023 20.9912 4.875 21.2812 4.875H30.0312C30.3213 4.875 30.5995 4.99023 30.8046 5.19535C31.0098 5.40047 31.125 5.67867 31.125 5.96875V14.7188ZM25.6562 18C25.3662 18 25.088 18.1152 24.8829 18.3204C24.6777 18.5255 24.5625 18.8037 24.5625 19.0938V28.9375H7.0625V11.4375H16.9062C17.1963 11.4375 17.4745 11.3223 17.6796 11.1171C17.8848 10.912 18 10.6338 18 10.3438C18 10.0537 17.8848 9.77547 17.6796 9.57035C17.4745 9.36523 17.1963 9.25 16.9062 9.25H7.0625C6.48234 9.25 5.92594 9.48047 5.5157 9.8907C5.10547 10.3009 4.875 10.8573 4.875 11.4375V28.9375C4.875 29.5177 5.10547 30.0741 5.5157 30.4843C5.92594 30.8945 6.48234 31.125 7.0625 31.125H24.5625C25.1427 31.125 25.6991 30.8945 26.1093 30.4843C26.5195 30.0741 26.75 29.5177 26.75 28.9375V19.0938C26.75 18.8037 26.6348 18.5255 26.4296 18.3204C26.2245 18.1152 25.9463 18 25.6562 18Z" fill="#2D4486"/>
</svg>
