<svg width="32" height="32" viewBox="0 0 32 32" fill="none" xmlns="http://www.w3.org/2000/svg">
<path d="M19.5422 2.61521C19.5846 2.45657 19.6579 2.30785 19.7578 2.17754C19.8578 2.04723 19.9824 1.93789 20.1246 1.85576C20.2668 1.77363 20.4238 1.72033 20.5866 1.69889C20.7494 1.67746 20.9148 1.68831 21.0735 1.73084C23.3907 2.33544 25.505 3.54684 27.1984 5.24027C28.8918 6.93369 30.1032 9.04792 30.7078 11.3652C30.7504 11.5238 30.7612 11.6893 30.7398 11.8521C30.7183 12.0149 30.665 12.1719 30.5829 12.3141C30.5008 12.4563 30.3914 12.5809 30.2611 12.6808C30.1308 12.7808 29.9821 12.854 29.8235 12.8965C29.7179 12.9242 29.6092 12.9384 29.5 12.9386C29.2246 12.9386 28.9568 12.8476 28.7384 12.6798C28.52 12.512 28.3631 12.2767 28.2922 12.0105C27.7991 10.1188 26.8104 8.39288 25.4281 7.01056C24.0458 5.62824 22.3198 4.63957 20.4281 4.14646C20.2694 4.1042 20.1205 4.03105 19.99 3.93119C19.8595 3.83133 19.75 3.70673 19.6677 3.56451C19.5854 3.42229 19.532 3.26525 19.5105 3.10236C19.4889 2.93947 19.4997 2.77393 19.5422 2.61521ZM19.1781 9.14646C21.3328 9.72146 22.7172 11.1058 23.2922 13.2605C23.3631 13.5267 23.52 13.762 23.7384 13.9298C23.9568 14.0976 24.2246 14.1886 24.5 14.1886C24.6092 14.1884 24.7179 14.1742 24.8235 14.1465C24.9821 14.104 25.1308 14.0308 25.2611 13.9308C25.3914 13.8309 25.5008 13.7063 25.5829 13.5641C25.665 13.4219 25.7183 13.2649 25.7398 13.1021C25.7612 12.9393 25.7504 12.7738 25.7078 12.6152C24.9078 9.62146 22.8172 7.53084 19.8235 6.73084C19.5031 6.64526 19.1619 6.69045 18.8749 6.85644C18.5879 7.02244 18.3786 7.29566 18.293 7.61599C18.2074 7.93632 18.2526 8.27753 18.4186 8.56455C18.5846 8.85157 18.8578 9.06089 19.1781 9.14646ZM31.9813 24.0449C31.7027 26.1621 30.6629 28.1056 29.0561 29.5122C27.4494 30.9188 25.3855 31.6925 23.25 31.6886C10.8438 31.6886 0.750014 21.5949 0.750014 9.18865C0.746186 7.05317 1.51984 4.98931 2.92647 3.38255C4.33311 1.77579 6.27653 0.736003 8.39376 0.457399C8.92916 0.392025 9.47134 0.501558 9.93937 0.769646C10.4074 1.03773 10.7762 1.45 10.9906 1.9449L14.2906 9.31209V9.33084C14.4548 9.70967 14.5227 10.1233 14.488 10.5347C14.4534 10.9461 14.3174 11.3426 14.0922 11.6886C14.0641 11.7308 14.0344 11.7699 14.0031 11.809L10.75 15.6652C11.9203 18.0433 14.4078 20.509 16.8172 21.6824L20.6203 18.4465C20.6577 18.4151 20.6968 18.3859 20.7375 18.359C21.0833 18.1283 21.4811 17.9876 21.895 17.9494C22.3088 17.9112 22.7257 17.9768 23.1078 18.1402L23.1281 18.1496L30.4891 21.448C30.9848 21.6617 31.3981 22.0302 31.6671 22.4983C31.9361 22.9664 32.0463 23.509 31.9813 24.0449ZM29.5 23.7324C29.5 23.7324 29.4891 23.7324 29.4828 23.7324L22.1391 20.4433L18.3344 23.6793C18.2975 23.7105 18.2589 23.7397 18.2188 23.7668C17.859 24.0068 17.4431 24.1494 17.0118 24.1806C16.5805 24.2118 16.1484 24.1306 15.7578 23.9449C12.8313 22.5308 9.91408 19.6355 8.49845 16.7402C8.311 16.3525 8.22688 15.9229 8.25426 15.4931C8.28163 15.0633 8.41957 14.6479 8.6547 14.2871C8.6812 14.2447 8.71098 14.2045 8.74376 14.1668L12 10.3058L8.71876 2.96209C8.71815 2.95585 8.71815 2.94957 8.71876 2.94334C7.20354 3.14099 5.81232 3.88422 4.80566 5.03383C3.79899 6.18344 3.24592 7.66059 3.25001 9.18865C3.2558 14.4912 5.3648 19.5749 9.11427 23.3244C12.8637 27.0739 17.9475 29.1829 23.25 29.1886C24.7771 29.1939 26.2539 28.6428 27.4042 27.6383C28.5544 26.6338 29.2995 25.2447 29.5 23.7308V23.7324Z" fill="black"/>
</svg>
