<svg width="89" height="76" viewBox="0 0 89 76" fill="none" xmlns="http://www.w3.org/2000/svg">
<path d="M85.125 0.75H57C54.5743 0.75 52.1819 1.31477 50.0123 2.39957C47.8427 3.48438 45.9554 5.05944 44.5 7C43.0446 5.05944 41.1573 3.48438 38.9877 2.39957C36.8181 1.31477 34.4257 0.75 32 0.75H3.875C3.0462 0.75 2.25134 1.07924 1.66529 1.66529C1.07924 2.25134 0.75 3.0462 0.75 3.875V60.125C0.75 60.9538 1.07924 61.7487 1.66529 62.3347C2.25134 62.9208 3.0462 63.25 3.875 63.25H32C34.4864 63.25 36.871 64.2377 38.6291 65.9959C40.3873 67.754 41.375 70.1386 41.375 72.625C41.375 73.4538 41.7042 74.2487 42.2903 74.8347C42.8763 75.4208 43.6712 75.75 44.5 75.75C45.3288 75.75 46.1237 75.4208 46.7097 74.8347C47.2958 74.2487 47.625 73.4538 47.625 72.625C47.625 70.1386 48.6127 67.754 50.3709 65.9959C52.129 64.2377 54.5136 63.25 57 63.25H85.125C85.9538 63.25 86.7487 62.9208 87.3347 62.3347C87.9208 61.7487 88.25 60.9538 88.25 60.125V3.875C88.25 3.0462 87.9208 2.25134 87.3347 1.66529C86.7487 1.07924 85.9538 0.75 85.125 0.75ZM32 57H7V7H32C34.4864 7 36.871 7.98772 38.6291 9.74587C40.3873 11.504 41.375 13.8886 41.375 16.375V60.125C38.6729 58.0917 35.3817 56.9946 32 57ZM82 57H57C53.6183 56.9946 50.3271 58.0917 47.625 60.125V16.375C47.625 13.8886 48.6127 11.504 50.3709 9.74587C52.129 7.98772 54.5136 7 57 7H82V57ZM57 16.375H72.625C73.4538 16.375 74.2487 16.7042 74.8347 17.2903C75.4208 17.8763 75.75 18.6712 75.75 19.5C75.75 20.3288 75.4208 21.1237 74.8347 21.7097C74.2487 22.2958 73.4538 22.625 72.625 22.625H57C56.1712 22.625 55.3763 22.2958 54.7903 21.7097C54.2042 21.1237 53.875 20.3288 53.875 19.5C53.875 18.6712 54.2042 17.8763 54.7903 17.2903C55.3763 16.7042 56.1712 16.375 57 16.375ZM75.75 32C75.75 32.8288 75.4208 33.6237 74.8347 34.2097C74.2487 34.7958 73.4538 35.125 72.625 35.125H57C56.1712 35.125 55.3763 34.7958 54.7903 34.2097C54.2042 33.6237 53.875 32.8288 53.875 32C53.875 31.1712 54.2042 30.3763 54.7903 29.7903C55.3763 29.2042 56.1712 28.875 57 28.875H72.625C73.4538 28.875 74.2487 29.2042 74.8347 29.7903C75.4208 30.3763 75.75 31.1712 75.75 32ZM75.75 44.5C75.75 45.3288 75.4208 46.1237 74.8347 46.7097C74.2487 47.2958 73.4538 47.625 72.625 47.625H57C56.1712 47.625 55.3763 47.2958 54.7903 46.7097C54.2042 46.1237 53.875 45.3288 53.875 44.5C53.875 43.6712 54.2042 42.8763 54.7903 42.2903C55.3763 41.7042 56.1712 41.375 57 41.375H72.625C73.4538 41.375 74.2487 41.7042 74.8347 42.2903C75.4208 42.8763 75.75 43.6712 75.75 44.5Z" fill="#9C5EA3"/>
</svg>
