<svg width="100" height="64" viewBox="0 0 100 64" fill="none" xmlns="http://www.w3.org/2000/svg">
<path d="M45.8008 43.6875C49.9891 40.8992 53.1689 36.837 54.8699 32.1017C56.571 27.3665 56.7031 22.2095 55.2465 17.3934C53.79 12.5772 50.8223 8.35769 46.7822 5.35869C42.742 2.3597 37.8441 0.740479 32.8125 0.740479C27.781 0.740479 22.883 2.3597 18.8429 5.35869C14.8028 8.35769 11.835 12.5772 10.3785 17.3934C8.92197 22.2095 9.05401 27.3665 10.7551 32.1017C12.4562 36.837 15.6359 40.8992 19.8242 43.6875C12.248 46.4798 5.77777 51.647 1.37892 58.418C1.14773 58.7616 0.987145 59.1477 0.9065 59.5539C0.825855 59.9601 0.826758 60.3783 0.909156 60.7842C0.991554 61.19 1.1538 61.5755 1.38647 61.9181C1.61914 62.2607 1.91759 62.5536 2.26447 62.7799C2.61135 63.0061 2.99975 63.1612 3.40707 63.236C3.8144 63.3108 4.23254 63.3039 4.63718 63.2158C5.04183 63.1276 5.4249 62.9598 5.76414 62.7223C6.10339 62.4847 6.39203 62.1821 6.61329 61.832C9.45075 57.4679 13.3334 53.8817 17.9087 51.3991C22.4841 48.9165 27.6071 47.6162 32.8125 47.6162C38.018 47.6162 43.141 48.9165 47.7163 51.3991C52.2916 53.8817 56.1743 57.4679 59.0117 61.832C59.4701 62.5132 60.1781 62.9867 60.9827 63.1501C61.7874 63.3134 62.624 63.1535 63.3117 62.705C63.9994 62.2564 64.483 61.5553 64.6578 60.753C64.8327 59.9508 64.6848 59.112 64.2461 58.418C59.8473 51.647 53.377 46.4798 45.8008 43.6875ZM15.625 24.1875C15.625 20.7881 16.633 17.4651 18.5216 14.6386C20.4102 11.8122 23.0945 9.60919 26.2351 8.30831C29.3757 7.00743 32.8316 6.66706 36.1656 7.33024C39.4997 7.99343 42.5622 9.63037 44.9659 12.0341C47.3696 14.4378 49.0066 17.5003 49.6698 20.8344C50.3329 24.1684 49.9926 27.6243 48.6917 30.7649C47.3908 33.9055 45.1878 36.5898 42.3614 38.4784C39.5349 40.367 36.2119 41.375 32.8125 41.375C28.2557 41.3698 23.887 39.5573 20.6648 36.3352C17.4427 33.113 15.6302 28.7443 15.625 24.1875ZM97.711 62.7422C97.0168 63.1948 96.1713 63.3532 95.3604 63.1825C94.5494 63.0119 93.8395 62.5261 93.3867 61.832C90.5527 57.4653 86.6705 53.8775 82.0942 51.396C77.518 48.9144 72.3933 47.618 67.1875 47.625C66.3587 47.625 65.5639 47.2957 64.9778 46.7097C64.3918 46.1236 64.0625 45.3288 64.0625 44.5C64.0625 43.6712 64.3918 42.8763 64.9778 42.2903C65.5639 41.7042 66.3587 41.375 67.1875 41.375C69.7186 41.3726 72.218 40.8112 74.507 39.7309C76.796 38.6506 78.8182 37.0781 80.429 35.1257C82.0398 33.1733 83.1995 30.8892 83.8253 28.4366C84.451 25.9841 84.5274 23.4235 84.0488 20.9381C83.5703 18.4526 82.5487 16.1035 81.0571 14.0586C79.5654 12.0137 77.6406 10.3235 75.42 9.10871C73.1994 7.89396 70.7379 7.18467 68.2114 7.0315C65.6849 6.87832 63.1558 7.28506 60.8047 8.22264C60.4214 8.38836 60.0087 8.47555 59.5911 8.47908C59.1735 8.48261 58.7594 8.4024 58.3733 8.24319C57.9873 8.08398 57.637 7.849 57.3433 7.55214C57.0495 7.25527 56.8183 6.90254 56.6632 6.51479C56.5081 6.12704 56.4323 5.71214 56.4403 5.29459C56.4482 4.87705 56.5398 4.46534 56.7096 4.08378C56.8794 3.70223 57.1239 3.35858 57.4287 3.07313C57.7336 2.78768 58.0925 2.56623 58.4844 2.42186C63.8651 0.275969 69.8499 0.198747 75.2841 2.20509C80.7184 4.21144 85.2172 8.15919 87.9125 13.2868C90.6078 18.4143 91.3088 24.3584 89.8801 29.9723C88.4514 35.5862 84.9943 40.4721 80.1758 43.6875C87.752 46.4798 94.2223 51.647 98.6211 58.418C99.0738 59.1121 99.2322 59.9576 99.0615 60.7685C98.8908 61.5795 98.405 62.2894 97.711 62.7422Z" fill="#9C5EA3"/>
</svg>
