<svg width="192" height="167" viewBox="0 0 192 167" fill="none" xmlns="http://www.w3.org/2000/svg">
<path d="M23.917 59.7296C33.9393 58.3379 44.4597 63.2553 41.6191 70.2341C38.7785 77.213 26.3705 77.8808 19.3916 75.0402C12.4128 72.1996 17.0653 60.6731 23.9527 59.7435L23.917 59.7296Z" fill="#9C5EA3"/>
<path d="M74.2464 78.8765C63.6564 83.4124 56.7742 67.8869 65.5132 62.0968C74.2522 56.3066 85.3991 55.1887 86.7564 62.2427C88.1137 69.2966 80.4573 76.206 74.2464 78.8765Z" fill="#9C5EA3"/>
<path d="M53.8768 23.7889L44.8073 24.5256L34.0102 68.3795L37.8558 67.9891L53.8768 23.7889Z" fill="#9C5EA3"/>
<path d="M82.3879 26.5599L73.3143 63.985L79.7381 63.6136L92.1471 24.3682L82.3879 26.5599Z" fill="#9C5EA3"/>
<path d="M44.0721 21.0382L98.0452 21.6577L94.9122 31.6007L41.187 30.1338L44.0721 21.0382Z" fill="#9C5EA3"/>
<path d="M71.5968 129.104C76.6687 123.035 85.7082 122.902 87.8303 128.941C89.9523 134.979 82.2516 139.368 79.1171 139.091C75.9826 138.815 65.6889 136.161 71.5968 129.104Z" fill="#2D4486"/>
<path d="M82.1812 105.4L88.2483 105.628L85.8441 129.193L81.5414 128.544L82.1812 105.4Z" fill="#2D4486"/>
<path d="M85.8447 109.166C93.6433 103.051 103.509 115.552 104.447 121.786C97.2431 116.888 88.8215 112.377 85.8317 116.261L85.8803 109.18L85.8447 109.166Z" fill="#2D4486"/>
<path d="M135.685 115.974C140.184 105.578 152.641 101.728 158.121 109.156C163.601 116.584 154.694 125.756 150.278 126.663C145.862 127.57 130.483 128.066 135.685 115.974Z" fill="#FAEE00"/>
<path d="M140.459 79.0498L148.955 76.9406L155.447 110.331L149.17 111.17L140.459 79.0498Z" fill="#FAEE00"/>
<path d="M147.105 82.7457C155.393 71.1574 174.27 84.3357 178.088 92.5531C166.037 88.7221 152.553 85.9341 150 92.4913L147.105 82.7457Z" fill="#FAEE00"/>
</svg>
