<svg width="186" height="157" viewBox="0 0 186 157" fill="none" xmlns="http://www.w3.org/2000/svg">
<path d="M21.2654 102.43C28.4197 95.2745 39.777 92.8509 41.7208 100.131C43.6646 107.41 34.1707 115.427 26.8909 117.371C19.6112 119.315 16.3695 107.315 21.3022 102.419L21.2654 102.43Z" fill="#9C5EA3"/>
<path d="M72.9572 87.3436C67.2466 97.349 52.3926 89.117 55.8704 79.2276C59.3482 69.3381 67.5646 61.723 72.902 66.5305C78.2394 71.3381 76.3003 81.4672 72.9572 87.3436Z" fill="#9C5EA3"/>
<path d="M23.4827 55.6919L16.6931 61.7499L34.5331 103.241L37.3649 100.61L23.4827 55.6919Z" fill="#9C5EA3"/>
<path d="M47.8946 40.7045L63.2315 76.028L68.1312 71.857L54.3566 33.0698L47.8946 40.7045Z" fill="#9C5EA3"/>
<path d="M14.0034 59.4118L57.4263 27.3505L60.9248 37.1709L17.1885 68.4067L14.0034 59.4118Z" fill="#9C5EA3"/>
<path d="M101.14 129.004C101.525 121.104 108.655 115.546 113.99 119.082C119.325 122.618 115.829 130.764 113.163 132.434C110.496 134.104 100.684 138.196 101.14 129.004Z" fill="#2D4486"/>
<path d="M95.2847 103.713L100.262 100.236L112.558 120.481L108.734 122.559L95.2847 103.713Z" fill="#2D4486"/>
<path d="M100.478 104.507C103.01 94.9254 118.419 98.9456 122.927 103.352C114.227 103.79 104.79 105.273 104.747 110.174L100.515 104.496L100.478 104.507Z" fill="#2D4486"/>
<path d="M144.337 79.874C141.655 68.8681 149.269 58.2836 158.12 60.9029C166.971 63.5222 165.399 76.2104 162.424 79.5976C159.449 82.9847 147.482 92.6563 144.337 79.874Z" fill="#FAEE00"/>
<path d="M125.873 47.5434L131.377 40.7366L156.696 63.453L152.195 67.9085L125.873 47.5434Z" fill="#FAEE00"/>
<path d="M133.403 46.4825C133.024 32.2404 156.029 31.3652 164.031 35.6164C152.108 39.8301 139.672 45.7395 141.59 52.5096L133.403 46.4825Z" fill="#FAEE00"/>
</svg>
